<?xml version="1.0" encoding="utf8" standalone="no"?>
<svg viewBox="0 0 48 48" xmlns="http://www.w3.org/2000/svg">
<defs>
<linearGradient gradientUnits="userSpaceOnUse" id="linearGradient3773" x1="-34.31195" x2="-23.63085" y1="2.04454" y2="48.84575">
<stop offset="0" stop-color="#184375"/>
<stop offset="1" stop-color="#c8bddc"/>
</linearGradient>
<radialGradient cx="14.28762" cy="68.87297" fy="72.568" gradientTransform="matrix(1.39926,-2.234445e-7,8.196178e-8,.51326,4.36507,4.83929)" gradientUnits="userSpaceOnUse" id="radialGradient2308" r="11.68987">
<stop offset="0" stop-opacity=".32673"/>
<stop offset="1" stop-opacity="0"/>
</radialGradient>
</defs>
<path d="m44.28572,38.71429a19.92857,9.83724 0 1,1 -39.85714,0 19.92857,9.83724 0 1,1 39.85714,0z" fill="url(#radialGradient2308)" fill-rule="evenodd" transform="matrix(1.18638,0,0,1.18638,-4.53969,-7.79468)"/>
<path d="m22.69953.94747c-.47318.03238-.93309.10566-1.39785.15885h-.03177l-1.11193,6.06795c-1.81235.41274-3.51741,1.11319-5.05133,2.06501l-4.98779-3.58994c-1.34833,1.0468-2.5753,2.26767-3.65348,3.58994l3.46286,5.05133c-1.05142,1.60678-1.84208,3.44149-2.2874,5.36902-8e-005,.00911-6e-005,.03018 0,.03177l-6.03618.95308c-.11036.90137-.15885,1.8329-.15885,2.76394 0,.76175.02103,1.51333.09531,2.25562l6.03618,1.08016c.4293,2.09616 1.24481,4.05378 2.3827,5.78203l-3.58994,4.92425c1.02814,1.27638 2.21511,2.43848 3.49463,3.46286l5.0831-3.49463c1.77647,1.13324 3.75955,1.92789 5.9091,2.31916l.95308,6.00441c.67725.06165 1.37177.06354 2.06501.06354 .97869,0 1.91352-.03709 2.85924-.15885l1.1437-6.13149c2.04093-.5079 3.95818-1.389 5.62318-2.57332l4.89248,3.55817c1.26877-1.07945 2.42899-2.32019 3.43109-3.65348l-3.55817-5.14664c.96361-1.6642 1.6313-3.50037 1.9697-5.46433l6.00441-.95308c.05266-.62659.06354-1.23426.06354-1.87439 0-1.1124-.12929-2.2031-.28592-3.27225l-6.09972-1.11193c-.47801-1.76508-1.26231-3.41188-2.25563-4.89248l3.58994-4.92425c-1.11276-1.36085-2.38212-2.61798-3.78056-3.68525l-5.17841,3.55817c-1.48833-.88023-3.08998-1.55561-4.82894-1.93793l-.95308-6.03618c-.86748-.10204-1.7421-.15885-2.63686-.15885-.24183,0-.49071-.00761-.7307,0-.11699.00371-.23277-.00681-.34946,0h-.09531zm.826,15.43992c.11606-.00589.23194,0 .34946,0 3.76061,0 6.83042,3.06981 6.83042,6.83042s-3.06981,6.79865-6.83042,6.79865-6.79865-3.03804-6.79865-6.79865c0-3.64309 2.85121-6.64784 6.44918-6.83042z" fill="url(#linearGradient3773)" stroke="#3f4561" stroke-linecap="round" stroke-linejoin="round"/>
<path d="m36.23922,23.78159a12.72792,12.72792 0 1,1 -25.45584,0 12.72792,12.72792 0 1,1 25.45584,0z" fill="none" opacity=".64773" stroke="#fff" stroke-width="1.6218" transform="matrix(.6166,0,0,.6166,9.38202,8.53967)"/>
<path d="m21.99581,2.14847-.89278,5.87506c-1.69877.38687-4.82358,1.57008-6.26137,2.46225l-4.74968-3.54514c-1.26383.9812-1.3505,1.04774-2.36111,2.28714l3.4342,5.09322c-.98553,1.50608-2.16927,4.18999-2.59428,6.10794l-6.01779,1.01442c-.10344.84488-.05373,2.65317.01589,3.34895l5.74822,1.03552c.40239,1.96479 1.90823,5.12741 2.97481,6.74734l-3.635,4.80256c.9637,1.19639 1.15657,1.30587 2.35591,2.26605l4.86063-3.56104c1.66514,1.06222 4.97029,2.35438 6.98513,2.72113l.79773,5.80109c.63481.05778 2.38853.21988 3.27498.10575l.89278-6.03888c1.91302-.47607 5.21847-1.83293 6.77913-2.94302l4.85543,3.50816c1.18925-1.01179 1.19991-1.16425 2.13921-2.41398l-3.59802-5.11431c.90322-1.5599 2.07109-4.6106 2.38828-6.45148l5.89095-.97744c.04935-.58732.05176-2.22517-.09506-3.22731l-6.0019-1.03552c-.44805-1.65446-1.98567-4.63577-2.91673-6.02358l3.81472-4.80256c-1.04302-1.27557-1.43084-1.45059-2.74163-2.45096l-5.02445,3.59802c-1.39505-.82506-4.1769-2.0828-5.80688-2.44115l-.88759-5.74822c-.81311-.09565-3.15904-.05317-3.62372,0z" fill="none" opacity=".34659" stroke="#fff"/>
<path d="m10.1029,6.29707c-1.34833,1.0468-1.93726,1.67486-3.01543,2.99713l3.40246,4.96496c-1.05142,1.5986-2.1583,4.16696-2.34754,5.72855l-6.0625,1.04419c-.06897.56336-.17364,1.8529-.17364,1.8529l.17678,1.5625c.42773.08833.84016.17051 1.28125.21875l.5-1.53125c.34404.02848.67965.0625 1.03125.0625s.71846-.03383 1.0625-.0625l.46875,1.53125c.44129-.04824.88477-.13042 1.3125-.21875v-1.5625c.68576-.15962 1.332-.38776 1.96875-.65625l.9375,1.28125c.40235-.18209.7756-.37582 1.15625-.59375l-.5-1.5c.59723-.36225 1.16175-.79535 1.6875-1.25l1.28125.9375c.32564-.29658.64111-.61186.9375-.9375l-.9375-1.25c.45485-.52575.8565-1.08988 1.21875-1.6875l1.5.46875c.21793-.38085.44329-.75409.625-1.15625l-1.28125-.9375c.26849-.63675.46499-1.28299.625-1.96875h1.59375c.08833-.42773.13946-.87121.1875-1.3125l-1.5-.46875c.02886-.34385.0625-.7111.0625-1.0625s-.03402-.68701-.0625-1.03125l1.5-.46875c-.04555-.41989-.10559-.842-.1875-1.25-1.14743.3993-2.55266,1.15312-3.56851,1.78347l-4.88036-3.52746z" fill="#fff" opacity=".5"/>
<path d="m37.23664,17.21775c-.38378.18138-.74664.38575-1.11341.59554l.56965,1.73484c-.69709.4223-1.35473.91969-1.96788,1.45002l-1.47591-1.08751c-.38009.3459-.74177.70758-1.08751,1.08751l1.08751,1.47591c-.53033.61331-1.02755,1.27094-1.45002,1.96788l-.54376-.18125c-.04768.70028-.23638,1.36149-.51786,1.96788l.10357.07768c-.31316.74268-.56455,1.5304-.7509,2.33038h-1.47591c-.13628.08545-.27055.18506-.41429.25893-.07837.41527-.13491.81733-.18125,1.24287l1.76073.56965c-.03339.40128-.05179.8072-.05179,1.21698s.0184.8157.05179,1.21698l-1.76073.56965c.05602.51476.12999,1.02867.23304,1.5277l1.83841-.02589c.12812.54999.30307,1.10744.49197,1.63127 .74492-.28728 1.47383-.63018 2.14913-1.03572-.41159-1.21604-.64733-2.52911-.64733-3.88397 0-5.19793 3.29238-9.63666 7.8974-11.34119l-1.08751-.18125c-.22279-.82266-.51132-1.62859-.88037-2.38217-.01085-.02216-.01492-.05558-.02589-.07768l-.05179-.05179-.69911-.67322z" fill="#fff" opacity=".5"/>
</svg>
